<svg xmlns="http://www.w3.org/2000/svg" xmlns:xlink="http://www.w3.org/1999/xlink" width="512" zoomAndPan="magnify" viewBox="0 0 384 383.999986" height="512" preserveAspectRatio="xMidYMid meet" version="1.0"><defs><g/><clipPath id="0d466a0abb"><path d="M 118 131 L 326.929688 131 L 326.929688 325.707031 L 118 325.707031 Z M 118 131 " clip-rule="nonzero"/></clipPath><clipPath id="a2e1ebae3c"><path d="M 50.929688 78 L 208 78 L 208 200 L 50.929688 200 Z M 50.929688 78 " clip-rule="nonzero"/></clipPath><clipPath id="bab44153f0"><path d="M 50.929688 51.957031 L 208 51.957031 L 208 72 L 50.929688 72 Z M 50.929688 51.957031 " clip-rule="nonzero"/></clipPath><clipPath id="c6cd191d36"><rect x="0" width="146" y="0" height="55"/></clipPath></defs><g clip-path="url(#0d466a0abb)"><path fill="#4377c3" d="M 313.101562 131.609375 L 218.09375 131.609375 L 218.09375 147.015625 L 311.515625 147.015625 L 311.515625 264.042969 L 134.226562 264.042969 L 134.226562 210.261719 L 118.808594 210.261719 L 118.808594 265.621094 C 118.808594 268.476562 119.675781 271.140625 121.175781 273.34375 C 122.417969 275.183594 124.09375 276.710938 126.046875 277.78125 C 128.007812 278.839844 130.253906 279.449219 132.632812 279.449219 L 215.917969 279.449219 L 215.917969 298.171875 C 205.507812 298.824219 196.503906 300.902344 190.621094 303.808594 C 186.039062 306.074219 183.355469 308.84375 183.355469 311.832031 C 183.355469 319.492188 201.039062 325.707031 222.871094 325.707031 C 244.695312 325.707031 262.386719 319.492188 262.386719 311.832031 C 262.386719 307.992188 257.933594 304.511719 250.75 302 C 245.167969 300.046875 237.914062 298.679688 229.816406 298.171875 L 229.816406 279.449219 L 313.101562 279.449219 C 317.859375 279.449219 322.074219 277.023438 324.558594 273.34375 C 326.054688 271.140625 326.925781 268.476562 326.925781 265.621094 L 326.925781 145.421875 C 326.925781 137.816406 320.71875 131.609375 313.101562 131.609375 " fill-opacity="1" fill-rule="nonzero"/></g><path fill="#4377c3" d="M 111.03125 118.933594 L 76.710938 138.734375 C 76.433594 138.902344 76.433594 139.304688 76.710938 139.46875 L 111.03125 159.269531 C 111.316406 159.433594 111.667969 159.226562 111.667969 158.902344 L 111.667969 149.542969 C 111.667969 149.382812 111.59375 149.25 111.460938 149.167969 L 94.644531 139.46875 C 94.359375 139.304688 94.359375 138.902344 94.644531 138.734375 L 111.460938 129.039062 C 111.59375 128.957031 111.667969 128.8125 111.667969 128.664062 L 111.667969 119.300781 C 111.667969 118.980469 111.316406 118.769531 111.03125 118.933594 " fill-opacity="1" fill-rule="nonzero"/><path fill="#4377c3" d="M 147.421875 159.269531 L 181.746094 139.46875 C 182.027344 139.304688 182.027344 138.902344 181.746094 138.734375 L 147.421875 118.933594 C 147.136719 118.769531 146.785156 118.980469 146.785156 119.300781 L 146.785156 128.664062 C 146.785156 128.8125 146.867188 128.957031 146.996094 129.039062 L 163.820312 138.734375 C 164.105469 138.902344 164.105469 139.304688 163.820312 139.46875 L 146.996094 149.167969 C 146.867188 149.25 146.785156 149.382812 146.785156 149.542969 L 146.785156 158.902344 C 146.785156 159.226562 147.136719 159.433594 147.421875 159.269531 " fill-opacity="1" fill-rule="nonzero"/><path fill="#4377c3" d="M 143.890625 111.480469 L 135.117188 111.253906 L 114.566406 166.726562 L 123.285156 167.105469 L 143.890625 111.480469 " fill-opacity="1" fill-rule="nonzero"/><g clip-path="url(#a2e1ebae3c)"><path fill="#4377c3" d="M 62.863281 90.585938 L 195.589844 90.585938 L 195.589844 187.777344 L 62.863281 187.777344 Z M 134.226562 199.703125 L 207.527344 199.703125 L 207.527344 78.667969 L 50.933594 78.667969 L 50.933594 199.703125 L 134.226562 199.703125 " fill-opacity="1" fill-rule="nonzero"/></g><g clip-path="url(#bab44153f0)"><path fill="#4377c3" d="M 184.011719 65.707031 C 181.820312 65.707031 180.046875 63.925781 180.046875 61.738281 C 180.046875 59.554688 181.820312 57.773438 184.011719 57.773438 C 186.207031 57.773438 187.980469 59.554688 187.980469 61.738281 C 187.980469 63.925781 186.207031 65.707031 184.011719 65.707031 Z M 168.207031 65.707031 C 166.019531 65.707031 164.238281 63.925781 164.238281 61.738281 C 164.238281 59.554688 166.019531 57.773438 168.207031 57.773438 C 170.398438 57.773438 172.171875 59.554688 172.171875 61.738281 C 172.171875 63.925781 170.398438 65.707031 168.207031 65.707031 Z M 152.40625 65.707031 C 150.214844 65.707031 148.441406 63.925781 148.441406 61.738281 C 148.441406 59.554688 150.214844 57.773438 152.40625 57.773438 C 154.597656 57.773438 156.371094 59.554688 156.371094 61.738281 C 156.371094 63.925781 154.597656 65.707031 152.40625 65.707031 Z M 137.574219 65.453125 L 74.195312 65.453125 C 72.144531 65.453125 70.484375 63.792969 70.484375 61.738281 C 70.484375 59.6875 72.144531 58.027344 74.195312 58.027344 L 137.574219 58.027344 C 139.625 58.027344 141.285156 59.6875 141.285156 61.738281 C 141.285156 63.792969 139.625 65.453125 137.574219 65.453125 Z M 187.941406 51.957031 L 70.519531 51.957031 C 59.699219 51.957031 50.933594 60.71875 50.933594 71.523438 L 207.527344 71.523438 C 207.527344 60.71875 198.757812 51.957031 187.941406 51.957031 " fill-opacity="1" fill-rule="nonzero"/></g><g transform="matrix(1, 0, 0, 1, 148, 197)"><g clip-path="url(#c6cd191d36)"><g fill="#4377c3" fill-opacity="1"><g transform="translate(0.601172, 42.779069)"><g><path d="M 20.8125 -4.734375 L 2.03125 -12.96875 L 2.03125 -14.890625 L 20.8125 -24.25 L 20.8125 -21.34375 L 5.53125 -14.09375 L 20.8125 -7.671875 Z M 20.8125 -4.734375 "/></g></g></g><g fill="#4377c3" fill-opacity="1"><g transform="translate(23.476694, 42.779069)"><g><path d="M 0.84375 9.609375 C -0.394531 9.609375 -1.398438 9.445312 -2.171875 9.125 L -2.171875 6.484375 C -1.273438 6.742188 -0.390625 6.875 0.484375 6.875 C 1.503906 6.875 2.25 6.597656 2.71875 6.046875 C 3.195312 5.492188 3.4375 4.648438 3.4375 3.515625 L 3.4375 -21.421875 L 6.6875 -21.421875 L 6.6875 3.28125 C 6.6875 7.5 4.738281 9.609375 0.84375 9.609375 Z M 3.171875 -27.21875 C 3.171875 -27.957031 3.351562 -28.5 3.71875 -28.84375 C 4.082031 -29.1875 4.535156 -29.359375 5.078125 -29.359375 C 5.597656 -29.359375 6.046875 -29.179688 6.421875 -28.828125 C 6.804688 -28.484375 7 -27.945312 7 -27.21875 C 7 -26.488281 6.804688 -25.941406 6.421875 -25.578125 C 6.046875 -25.222656 5.597656 -25.046875 5.078125 -25.046875 C 4.535156 -25.046875 4.082031 -25.222656 3.71875 -25.578125 C 3.351562 -25.941406 3.171875 -26.488281 3.171875 -27.21875 Z M 3.171875 -27.21875 "/></g></g></g><g fill="#4377c3" fill-opacity="1"><g transform="translate(33.59584, 42.779069)"><g><path d="M 21.921875 -10.734375 C 21.921875 -7.234375 21.039062 -4.503906 19.28125 -2.546875 C 17.519531 -0.585938 15.09375 0.390625 12 0.390625 C 10.082031 0.390625 8.378906 -0.0546875 6.890625 -0.953125 C 5.410156 -1.859375 4.265625 -3.148438 3.453125 -4.828125 C 2.648438 -6.503906 2.25 -8.472656 2.25 -10.734375 C 2.25 -14.222656 3.117188 -16.941406 4.859375 -18.890625 C 6.609375 -20.835938 9.035156 -21.8125 12.140625 -21.8125 C 15.128906 -21.8125 17.503906 -20.8125 19.265625 -18.8125 C 21.035156 -16.820312 21.921875 -14.128906 21.921875 -10.734375 Z M 5.609375 -10.734375 C 5.609375 -7.992188 6.15625 -5.90625 7.25 -4.46875 C 8.34375 -3.039062 9.953125 -2.328125 12.078125 -2.328125 C 14.203125 -2.328125 15.8125 -3.039062 16.90625 -4.46875 C 18.007812 -5.894531 18.5625 -7.984375 18.5625 -10.734375 C 18.5625 -13.453125 18.007812 -15.515625 16.90625 -16.921875 C 15.8125 -18.335938 14.1875 -19.046875 12.03125 -19.046875 C 9.90625 -19.046875 8.300781 -18.347656 7.21875 -16.953125 C 6.144531 -15.566406 5.609375 -13.492188 5.609375 -10.734375 Z M 5.609375 -10.734375 "/></g></g></g><g fill="#4377c3" fill-opacity="1"><g transform="translate(57.760673, 42.779069)"><g><path d="M 18.09375 0 L 18.09375 -13.859375 C 18.09375 -15.597656 17.691406 -16.894531 16.890625 -17.75 C 16.097656 -18.613281 14.859375 -19.046875 13.171875 -19.046875 C 10.910156 -19.046875 9.265625 -18.429688 8.234375 -17.203125 C 7.203125 -15.984375 6.6875 -13.984375 6.6875 -11.203125 L 6.6875 0 L 3.4375 0 L 3.4375 -30.40625 L 6.6875 -30.40625 L 6.6875 -21.203125 C 6.6875 -20.085938 6.632812 -19.164062 6.53125 -18.4375 L 6.71875 -18.4375 C 7.351562 -19.46875 8.257812 -20.28125 9.4375 -20.875 C 10.625 -21.46875 11.972656 -21.765625 13.484375 -21.765625 C 16.097656 -21.765625 18.0625 -21.140625 19.375 -19.890625 C 20.6875 -18.648438 21.34375 -16.675781 21.34375 -13.96875 L 21.34375 0 Z M 18.09375 0 "/></g></g></g><g fill="#4377c3" fill-opacity="1"><g transform="translate(82.316208, 42.779069)"><g><path d="M 18.09375 0 L 18.09375 -13.859375 C 18.09375 -15.597656 17.691406 -16.894531 16.890625 -17.75 C 16.097656 -18.613281 14.859375 -19.046875 13.171875 -19.046875 C 10.929688 -19.046875 9.289062 -18.441406 8.25 -17.234375 C 7.207031 -16.023438 6.6875 -14.023438 6.6875 -11.234375 L 6.6875 0 L 3.4375 0 L 3.4375 -21.421875 L 6.078125 -21.421875 L 6.609375 -18.484375 L 6.765625 -18.484375 C 7.421875 -19.535156 8.347656 -20.351562 9.546875 -20.9375 C 10.753906 -21.519531 12.09375 -21.8125 13.5625 -21.8125 C 16.132812 -21.8125 18.070312 -21.1875 19.375 -19.9375 C 20.6875 -18.695312 21.34375 -16.707031 21.34375 -13.96875 L 21.34375 0 Z M 18.09375 0 "/></g></g></g><g fill="#4377c3" fill-opacity="1"><g transform="translate(106.871742, 42.779069)"><g><path d="M 14.28125 -28.5625 L 3.640625 0 L 0.390625 0 L 11.046875 -28.5625 Z M 14.28125 -28.5625 "/></g></g></g><g fill="#4377c3" fill-opacity="1"><g transform="translate(121.562085, 42.779069)"><g><path d="M 2.03125 -7.671875 L 17.328125 -14.046875 L 2.03125 -21.34375 L 2.03125 -24.25 L 20.8125 -14.890625 L 20.8125 -12.96875 L 2.03125 -4.734375 Z M 2.03125 -7.671875 "/></g></g></g></g></g></svg>